# xmcd
#
# Track frame offsets:
#	150
#	20893
#	49471
#	74108
#	88449
#	116063
#	135365
#	162614
#
# Disc length: 2415 seconds
#
# Revision: 2
# Processed by: cddbd v1.4PL0 Copyright (c) Steve Scherf et al.
# Submitted via: CDmax 1.8
#
DISCID=81096d08
DTITLE=Lionel Richie - Can't slow down
DYEAR=1983
DGENRE=R and B
TTITLE0=Can't slow down
TTITLE1=All night long (All night)
TTITLE2=Penny Lover
TTITLE3=Stuck on you
TTITLE4=Love will find a way
TTITLE5=The only one
TTITLE6=Running with the night
TTITLE7=Hello
EXTD=Transferred to Cd from the original album from Barry Alexander's collecti
EXTD=on.\n\nYep got a few nicks and stuff.  Get over it.  It ain't skippin tha
EXTD=t much
EXTT0=
EXTT1=
EXTT2=
EXTT3=
EXTT4=
EXTT5=
EXTT6=
EXTT7=
PLAYORDER=
